#!OML:ASF F:\VICON\USERDATA\INSTALL\rory3\rory3.ASF
:FULLY-SPECIFIED
:DEGREES
133
root 1.55443 18.5104 34.9364 2.81759 -2.75889 -0.39745
lowerback 14.0373 -1.45903 0.507283
upperback -1.8406 -1.67256 1.90976
thorax -9.85185 -0.766663 2.14702
lowerneck -20.2884 -2.35061 -2.21402
upperneck 10.4713 -3.20815 4.21557
head 6.58829 -1.26017 1.36148
rclavicle -3.32964e-015 9.54166e-015
rhumerus -67.9102 8.49551 -97.8678
rradius 110.05
rwrist -15.7684
rhand -10.8283 37.2057
rfingers 7.12502
rthumb 15.1858 7.78298
lclavicle -3.32964e-015 9.54166e-015
lhumerus -35.7165 -13.4063 91.7044
lradius 127.46
lwrist 34.7721
lhand -26.1699 -1.17096
lfingers 7.12502
lthumb 0.381642 28.8084
rfemur -43.3895 -0.334105 25.039
rtibia 64.6109
rfoot 3.07102 -0.712042
rtoes -3.31781
lfemur 13.1064 -2.08411 -25.4307
ltibia 25.7559
lfoot 19.7345 -13.2427
ltoes -28.3185
134
root 1.56671 18.6051 35.4797 2.92867 -3.43477 -0.347795
lowerback 13.7048 -1.45711 0.390584
upperback -2.03307 -1.68049 2.04371
thorax -9.86371 -0.759405 2.35343
lowerneck -19.7425 -2.44844 -2.52521
upperneck 10.4569 -3.26872 4.2418
head 6.50261 -1.30739 1.41628
rclavicle 2.87741e-014 2.78299e-015
rhumerus -68.9572 8.06225 -97.2628
rradius 110.572
rwrist -15.7757
rhand -10.7168 36.7194
rfingers 7.12502
rthumb 15.2932 7.30487
lclavicle 2.87741e-014 2.78299e-015
lhumerus -36.3576 -13.2986 91.622
lradius 127.379
lwrist 33.6084
lhand -25.9589 -1.13877
lfingers 7.12502
lthumb 0.585393 28.8402
rfemur -42.4545 0.245836 25.0425
rtibia 59.2622
rfoot 2.7069 -1.51365
rtoes -5.80254
lfemur 14.263 -2.74069 -25.9862
ltibia 24.9664
lfoot 23.4627 -14.0255
ltoes -22.5774
135
root 1.57275 18.6743 36.0113 2.95737 -4.10318 0.171218
lowerback 13.5296 -1.37525 -0.207824
upperback -2.10269 -1.67983 1.99841
thorax -9.82242 -0.727326 2.63862
lowerneck -19.8244 -2.5659 -2.66043
upperneck 10.6037 -3.38905 4.20759
head 6.56905 -1.3717 1.41253
rclavicle 1.83876e-015 1.51076e-014
rhumerus -69.659 7.50823 -96.6515
rradius 111.052
rwrist -15.5116
rhand -10.4534 36.6629
rfingers 7.12502
rthumb 15.547 7.26786
lclavicle 1.83876e-015 1.51076e-014
lhumerus -36.7757 -13.3364 91.4297
lradius 127.24
lwrist 32.4642
lhand -25.1376 -1.43356
lfingers 7.12502
lthumb 1.37868 28.5417
rfemur -41.4872 0.774006 24.5165
rtibia 53.8766
rfoot 2.79642 -1.92891
rtoes -9.28371
lfemur 15.1757 -3.20339 -27.0155
ltibia 24.8521
lfoot 25.792 -14.7954
ltoes -17.2535
136
root 1.57526 18.7179 36.5326 3.03578 -4.57042 0.494626
lowerback 13.4201 -1.2902 -0.491986
upperback -2.32401 -1.61644 1.96668
thorax -9.99879 -0.677962 2.75458
lowerneck -19.6008 -2.60855 -2.83799
upperneck 10.7715 -3.40001 4.14444
head 6.58906 -1.3916 1.42067
rclavicle -2.09221e-014 0
rhumerus -70.5261 6.65423 -96.0302
rradius 111.309
rwrist -15.0673
rhand -10.4986 37.1937
rfingers 7.12502
rthumb 15.5034 7.79531
lclavicle -2.09221e-014 0
lhumerus -37.5297 -14.0682 91.7739
lradius 127.363
lwrist 33.5302
lhand -25.9284 -0.803175
lfingers 7.12502
lthumb 0.614865 29.1757
rfemur -40.4767 1.39293 24.1155
rtibia 48.5403
rfoot 3.3676 -2.63098
rtoes -10.4295
lfemur 15.8307 -3.58878 -27.7515
ltibia 25.2519
lfoot 26.1084 -16.0202
ltoes -14.5644
137
root 1.57395 18.7555 37.0634 3.11201 -5.07577 0.624123
lowerback 13.2577 -1.28218 -0.777947
upperback -2.3832 -1.65249 1.98968
thorax -9.95921 -0.678301 2.94508
lowerneck -19.7162 -2.38508 -2.51117
upperneck 11.005 -3.13194 3.76662
head 6.66166 -1.2789 1.27504
rclavicle -1.59028e-014 1.03368e-014
rhumerus -71.045 6.16732 -95.6129
rradius 111.545
rwrist -14.7626
rhand -10.4271 37.3862
rfingers 7.12502
rthumb 15.5723 7.99313
lclavicle -1.59028e-014 1.03368e-014
lhumerus -37.7089 -13.9492 91.2834
lradius 126.943
lwrist 32.752
lhand -23.3844 -0.0719061
lfingers 7.12502
lthumb 3.07188 29.8857
rfemur -39.2934 2.16922 23.8803
rtibia 43.3701
rfoot 4.03049 -3.54281
rtoes -10.0873
lfemur 16.2431 -3.75189 -28.2583
ltibia 26.2119
lfoot 25.6515 -17.6804
ltoes -13.3407
138
root 1.57199 18.7832 37.5963 3.09505 -5.39078 1.12694
lowerback 12.8684 -1.28635 -1.27244
upperback -2.20595 -1.75405 1.85443
thorax -9.52148 -0.713304 3.07978
lowerneck -20.2823 -2.26524 -2.35097
upperneck 11.2465 -2.97255 3.53057
head 6.82059 -1.20843 1.18716
rclavicle 1.42131e-014 1.03368e-014
rhumerus -71.1088 5.67562 -95.2002
rradius 111.807
rwrist -14.4858
rhand -10.6174 37.3008
rfingers 7.12502
rthumb 15.3891 7.89356
lclavicle 1.42131e-014 1.03368e-014
lhumerus -37.9289 -14.7847 91.4188
lradius 126.655
lwrist 32.8827
lhand -24.6356 -0.507998
lfingers 7.12502
lthumb 1.86349 29.4636
rfemur -38.035 2.61022 23.3021
rtibia 38.5352
rfoot 4.77348 -4.40759
rtoes -10.2383
lfemur 16.4296 -4.06407 -29.1499
ltibia 27.7131
lfoot 25.1092 -19.1104
ltoes -13.3143
139
root 1.56837 18.7892 38.1031 3.03838 -5.42223 1.49555
lowerback 12.3287 -1.3044 -1.47516
upperback -1.68911 -1.82475 1.6726
thorax -8.64006 -0.764181 2.97678
lowerneck -21.2109 -2.38781 -2.35238
upperneck 11.0097 -3.12912 3.63432
head 6.90029 -1.26562 1.19732
rclavicle 0 -1.35174e-014
rhumerus -70.4037 4.84236 -94.7591
rradius 111.879
rwrist -13.8728
rhand -10.7452 37.2811
rfingers 7.12502
rthumb 15.266 7.86441
lclavicle 0 -1.35174e-014
lhumerus -37.5758 -15.8121 91.5127
lradius 126.218
lwrist 33.0979
lhand -26.0063 -1.129
lfingers 7.12502
lthumb 0.539693 28.8501
rfemur -36.8502 2.96412 22.8842
rtibia 34.1388
rfoot 5.42552 -5.2203
rtoes -11.954
lfemur 16.5174 -4.62838 -29.7834
ltibia 29.6323
lfoot 24.189 -20.0949
ltoes -14.3093
140
root 1.56902 18.7902 38.5971 3.08142 -5.10011 1.70919
lowerback 13.3371 -1.58634 -1.74094
upperback -2.37582 -2.25002 1.71101
thorax -9.93936 -0.91856 3.31904
lowerneck -20.6415 -2.27514 -2.35494
upperneck 11.0568 -2.98878 3.63294
head 6.81937 -1.2045 1.21737
rclavicle 4.39314e-014 2.38542e-015
rhumerus -71.6399 4.54848 -94.6017
rradius 112.039
rwrist -13.1598
rhand -10.8455 37.4184
rfingers 7.12502
rthumb 15.1693 7.99443
lclavicle 4.39314e-014 2.38542e-015
lhumerus -39.2394 -15.7142 91.9275
lradius 125.948
lwrist 33.0562
lhand -26.375 -0.815305
lfingers 7.12502
lthumb 0.183512 29.1644
rfemur -35.9853 3.34628 22.4886
rtibia 30.4193
rfoot 5.79441 -6.11829
rtoes -11.4467
lfemur 16.2341 -5.39761 -30.0678
ltibia 31.9349
lfoot 23.5409 -20.3391
ltoes -14.2089
141
root 1.57351 18.7886 39.1142 2.85693 -4.71049 1.77398
lowerback 12.9642 -1.75267 -1.43719
upperback -1.91125 -2.43256 1.5482
thorax -9.21891 -1.04891 2.97562
lowerneck -20.8785 -2.37696 -2.53616
upperneck 10.56 -3.11896 4.03581
head 6.71013 -1.23937 1.36165
rclavicle 1.37161e-014 -2.62396e-014
rhumerus -70.926 3.73123 -94.3286
rradius 111.951
rwrist -12.6647
rhand -10.9279 37.5626
rfingers 7.12502
rthumb 15.09 8.13261
lclavicle 1.37161e-014 -2.62396e-014
lhumerus -39.011 -16.2922 91.8149
lradius 125.288
lwrist 33.1672
lhand -26.1906 -1.05804
lfingers 7.12502
lthumb 0.361656 28.9214
rfemur -34.9004 3.71039 22.1779
rtibia 27.5925
rfoot 5.51864 -6.57353
rtoes -9.39321
lfemur 16.0345 -5.97161 -30.1612
ltibia 34.6555
lfoot 22.6388 -20.489
ltoes -15.0712
142
root 1.5768 18.7736 39.6338 2.42659 -4.45859 2.09949
lowerback 12.9771 -1.81164 -1.53469
upperback -1.64352 -2.53981 1.39809
thorax -8.93019 -1.10814 2.88232
lowerneck -20.5272 -2.43233 -2.68304
upperneck 9.96484 -3.15492 4.13655
head 6.46549 -1.2634 1.41605
rclavicle -8.24956e-015 7.95139e-015
rhumerus -70.616 3.07161 -93.9611
rradius 111.927
rwrist -12.3373
rhand -11.1375 37.4632
rfingers 7.12502
rthumb 14.8881 8.01813
lclavicle -8.24956e-015 7.95139e-015
lhumerus -39.4815 -16.66 92.165
lradius 124.644
lwrist 33.2152
lhand -26.3696 -1.11134
lfingers 7.12502
lthumb 0.18878 28.8683
rfemur -33.7884 3.87911 21.6703
rtibia 25.7855
rfoot 4.95883 -6.23368
rtoes -7.96338
lfemur 15.8057 -6.13101 -30.4667
ltibia 37.728
lfoot 21.6903 -20.7414
ltoes -16.9919
143
root 1.59424 18.7409 40.127 2.11544 -3.98949 3.04571
lowerback 13.0071 -1.93109 -2.05201
upperback -1.34222 -2.8106 1.05058
thorax -8.59725 -1.23289 2.84678
lowerneck -20.8104 -2.66699 -2.85696
upperneck 9.66606 -3.42663 4.27705
head 6.42912 -1.38804 1.45666
rclavicle -1.44119e-015 1.43125e-014
rhumerus -69.8943 2.42579 -93.6855
rradius 111.834
rwrist -12.0507
rhand -11.0521 37.3794
rfingers 7.12502
rthumb 14.9703 7.94044
lclavicle -1.44119e-015 1.43125e-014
lhumerus -39.5662 -16.8684 92.3192
lradius 123.805
lwrist 33.3454
lhand -26.3911 -1.10621
lfingers 7.12502
lthumb 0.168006 28.8735
rfemur -33.0137 3.36654 20.583
rtibia 24.6373
rfoot 4.75279 -5.11815
rtoes -8.64739
lfemur 15.0688 -6.20674 -31.3196
ltibia 41.1599
lfoot 21.7792 -21.2302
ltoes -17.6686
144
root 1.61885 18.692 40.6095 1.79642 -3.3922 4.10069
lowerback 13.7206 -2.14131 -2.61406
upperback -1.36735 -3.23318 0.656388
thorax -9.00139 -1.40869 2.86366
lowerneck -20.5872 -2.70524 -2.97244
upperneck 9.16455 -3.46832 4.51236
head 6.23996 -1.3997 1.54865
rclavicle 2.73329e-015 7.15625e-015
rhumerus -69.4901 1.9757 -93.5053
rradius 111.687
rwrist -11.8337
rhand -10.8083 37.3566
rfingers 7.12502
rthumb 15.2051 7.93536
lclavicle 2.73329e-015 7.15625e-015
lhumerus -40.0371 -16.8237 92.5088
lradius 122.802
lwrist 33.2982
lhand -26.636 -0.798471
lfingers 7.12502
lthumb -0.0685443 29.1813
rfemur -32.1404 2.58825 19.4107
rtibia 23.6744
rfoot 4.88874 -3.79212
rtoes -10.7777
lfemur 13.996 -6.35798 -32.3036
ltibia 45.0112
lfoot 22.8328 -21.2783
ltoes -14.8856
145
root 1.60853 18.6535 41.1203 1.49274 -3.41836 3.52892
lowerback 13.5868 -2.12497 -2.06777
upperback -1.01898 -3.1033 0.756204
thorax -8.57585 -1.38349 2.61711
lowerneck -21.2535 -3.00349 -2.8636
upperneck 9.61087 -3.86247 4.26739
head 6.49733 -1.59398 1.40038
rclavicle 7.85199e-015 9.54166e-015
rhumerus -68.7423 1.4038 -93.3455
rradius 111.546
rwrist -11.7813
rhand -10.9358 37.2252
rfingers 7.12502
rthumb 15.0823 7.79468
lclavicle 7.85199e-015 9.54166e-015
lhumerus -40.1788 -16.8881 92.604
lradius 121.657
lwrist 33.203
lhand -26.6019 -0.448344
lfingers 7.12502
lthumb -0.0355917 29.5314
rfemur -31.0121 3.68527 19.8546
rtibia 23.0033
rfoot 5.97448 -4.36296
rtoes -8.36865
lfemur 12.7097 -5.92182 -31.2537
ltibia 49.1958
lfoot 24.3079 -20.7027
ltoes -9.45348
